<svg xmlns="http://www.w3.org/2000/svg" width="222.78255213" height="323.5559896" viewBox="0 0 167.0869141 242.6669922" xml:space="preserve"><g style="fill-rule:nonzero;clip-rule:nonzero;stroke:#000;stroke-miterlimit:4"><path style="fill:#fff;stroke-width:.5" d="M166.8369141 235.5478516c0 3.7773438-3.0869141 6.8691406-6.8710938 6.8691406H7.1108398C3.3359375 242.4169922.25 239.3251953.25 235.5478516V7.1201172C.25 3.3427734 3.3359375.25 7.1108398.25h152.8549805c3.7841797 0 6.8710938 3.0927734 6.8710938 6.8701172v228.4277344z"/></g><text xml:space="preserve" style="font-size:32px;font-style:normal;font-weight:400;line-height:125%;letter-spacing:0;word-spacing:0;fill:#000;fill-opacity:1;stroke:none;font-family:Bitstream Vera Sans" x=".04359605" y="28.342009"><tspan x=".04359605" y="28.342009" style="font-style:normal;font-variant:normal;font-weight:400;font-stretch:normal;font-family:Arial;-inkscape-font-specification:Arial">1</tspan></text><path d="M7.989 3.103C7.747-.954.242-8.59 0-10.5-.242-8.591-7.747-.955-7.989 3.103c-.169 2.868 1.695 4.057 3.39 4.057 1.8351685-.021581 3.3508701-2.8006944 3.873-3.341.242.716-1.603 6.682-2.179 6.682h5.811c-.576 0-2.421-5.966-2.179-6.682.4571472.4962961 1.7971276 3.2578295 3.874 3.341 1.694-.001 3.557-1.189 3.388-4.057z" style="fill:#000" transform="matrix(1.5086 0 0 1.37933 16.929041 45.065897)"/><path d="M7.989 3.103C7.747-.954.242-8.59 0-10.5-.242-8.591-7.747-.955-7.989 3.103c-.169 2.868 1.695 4.057 3.39 4.057 1.8351685-.021581 3.3508701-2.8006944 3.873-3.341.242.716-1.603 6.682-2.179 6.682h5.811c-.576 0-2.421-5.966-2.179-6.682.4571472.4962961 1.7971276 3.2578295 3.874 3.341 1.694-.001 3.557-1.189 3.388-4.057z" style="fill:#000" transform="matrix(2.64868 0 0 2.42172 53.01089 31.765995)"/><path d="M7.989 3.103C7.747-.954.242-8.59 0-10.5-.242-8.591-7.747-.955-7.989 3.103c-.169 2.868 1.695 4.057 3.39 4.057 1.8351685-.021581 3.3508701-2.8006944 3.873-3.341.242.716-1.603 6.682-2.179 6.682h5.811c-.576 0-2.421-5.966-2.179-6.682.4571472.4962961 1.7971276 3.2578295 3.874 3.341 1.694-.001 3.557-1.189 3.388-4.057z" style="fill:#000" transform="matrix(-1.5086 0 0 -1.37933 150.22511 198.04408)"/><path d="M7.989 3.103C7.747-.954.242-8.59 0-10.5-.242-8.591-7.747-.955-7.989 3.103c-.169 2.868 1.695 4.057 3.39 4.057 1.8351685-.021581 3.3508701-2.8006944 3.873-3.341.242.716-1.603 6.682-2.179 6.682h5.811c-.576 0-2.421-5.966-2.179-6.682.4571472.4962961 1.7971276 3.2578295 3.874 3.341 1.694-.001 3.557-1.189 3.388-4.057z" style="fill:#000" transform="matrix(2.64868 0 0 2.42172 53.339713 94.698498)"/><path d="M7.989 3.103C7.747-.954.242-8.59 0-10.5-.242-8.591-7.747-.955-7.989 3.103c-.169 2.868 1.695 4.057 3.39 4.057 1.8351685-.021581 3.3508701-2.8006944 3.873-3.341.242.716-1.603 6.682-2.179 6.682h5.811c-.576 0-2.421-5.966-2.179-6.682.4571472.4962961 1.7971276 3.2578295 3.874 3.341 1.694-.001 3.557-1.189 3.388-4.057z" style="fill:#000" transform="matrix(-2.64868 0 0 -2.42172 53.789261 212.66394)"/><path d="M7.989 3.103C7.747-.954.242-8.59 0-10.5-.242-8.591-7.747-.955-7.989 3.103c-.169 2.868 1.695 4.057 3.39 4.057 1.8351685-.021581 3.3508701-2.8006944 3.873-3.341.242.716-1.603 6.682-2.179 6.682h5.811c-.576 0-2.421-5.966-2.179-6.682.4571472.4962961 1.7971276 3.2578295 3.874 3.341 1.694-.001 3.557-1.189 3.388-4.057z" style="fill:#000" transform="matrix(-2.64868 0 0 -2.42172 53.460438 151.33144)"/><path d="M7.989 3.103C7.747-.954.242-8.59 0-10.5-.242-8.591-7.747-.955-7.989 3.103c-.169 2.868 1.695 4.057 3.39 4.057 1.8351685-.021581 3.3508701-2.8006944 3.873-3.341.242.716-1.603 6.682-2.179 6.682h5.811c-.576 0-2.421-5.966-2.179-6.682.4571472.4962961 1.7971276 3.2578295 3.874 3.341 1.694-.001 3.557-1.189 3.388-4.057z" style="fill:#000" transform="matrix(2.64868 0 0 2.42172 114.97822 31.578035)"/><path d="M7.989 3.103C7.747-.954.242-8.59 0-10.5-.242-8.591-7.747-.955-7.989 3.103c-.169 2.868 1.695 4.057 3.39 4.057 1.8351685-.021581 3.3508701-2.8006944 3.873-3.341.242.716-1.603 6.682-2.179 6.682h5.811c-.576 0-2.421-5.966-2.179-6.682.4571472.4962961 1.7971276 3.2578295 3.874 3.341 1.694-.001 3.557-1.189 3.388-4.057z" style="fill:#000" transform="matrix(2.64868 0 0 2.42172 115.30704 94.510535)"/><path d="M7.989 3.103C7.747-.954.242-8.59 0-10.5-.242-8.591-7.747-.955-7.989 3.103c-.169 2.868 1.695 4.057 3.39 4.057 1.8351685-.021581 3.3508701-2.8006944 3.873-3.341.242.716-1.603 6.682-2.179 6.682h5.811c-.576 0-2.421-5.966-2.179-6.682.4571472.4962961 1.7971276 3.2578295 3.874 3.341 1.694-.001 3.557-1.189 3.388-4.057z" style="fill:#000" transform="matrix(-2.64868 0 0 -2.42172 115.75659 212.47597)"/><path d="M7.989 3.103C7.747-.954.242-8.59 0-10.5-.242-8.591-7.747-.955-7.989 3.103c-.169 2.868 1.695 4.057 3.39 4.057 1.8351685-.021581 3.3508701-2.8006944 3.873-3.341.242.716-1.603 6.682-2.179 6.682h5.811c-.576 0-2.421-5.966-2.179-6.682.4571472.4962961 1.7971276 3.2578295 3.874 3.341 1.694-.001 3.557-1.189 3.388-4.057z" style="fill:#000" transform="matrix(-2.64868 0 0 -2.42172 115.42777 151.14347)"/><path d="M7.989 3.103C7.747-.954.242-8.59 0-10.5-.242-8.591-7.747-.955-7.989 3.103c-.169 2.868 1.695 4.057 3.39 4.057 1.8351685-.021581 3.3508701-2.8006944 3.873-3.341.242.716-1.603 6.682-2.179 6.682h5.811c-.576 0-2.421-5.966-2.179-6.682.4571472.4962961 1.7971276 3.2578295 3.874 3.341 1.694-.001 3.557-1.189 3.388-4.057z" style="fill:#000" transform="matrix(2.64868 0 0 2.42172 84.152135 64.171198)"/><path d="M7.989 3.103C7.747-.954.242-8.59 0-10.5-.242-8.591-7.747-.955-7.989 3.103c-.169 2.868 1.695 4.057 3.39 4.057 1.8351685-.021581 3.3508701-2.8006944 3.873-3.341.242.716-1.603 6.682-2.179 6.682h5.811c-.576 0-2.421-5.966-2.179-6.682.4571472.4962961 1.7971276 3.2578295 3.874 3.341 1.694-.001 3.557-1.189 3.388-4.057z" style="fill:#000" transform="matrix(-2.64868 0 0 -2.42172 84.480868 180.54025)"/><text xml:space="preserve" style="font-size:32px;font-style:normal;font-weight:400;line-height:125%;letter-spacing:0;word-spacing:0;fill:#000;fill-opacity:1;stroke:none;font-family:Bitstream Vera Sans" x="12.206209" y="28.670717"><tspan x="12.206209" y="28.670717">0</tspan></text><text xml:space="preserve" style="font-size:32px;font-style:normal;font-weight:400;line-height:125%;letter-spacing:0;word-spacing:0;fill:#000;fill-opacity:1;stroke:none;font-family:Bitstream Vera Sans" x="-166.83667" y="-214.58258" transform="scale(-1)"><tspan x="-166.83667" y="-214.58258" style="font-style:normal;font-variant:normal;font-weight:400;font-stretch:normal;font-family:Arial;-inkscape-font-specification:Arial">1</tspan></text><text xml:space="preserve" style="font-size:32px;font-style:normal;font-weight:400;line-height:125%;letter-spacing:0;word-spacing:0;fill:#000;fill-opacity:1;stroke:none;font-family:Bitstream Vera Sans" x="-154.67406" y="-214.25388" transform="scale(-1)"><tspan x="-154.67406" y="-214.25388">0</tspan></text></svg>