<svg xmlns="http://www.w3.org/2000/svg" width="222.78255213" height="323.5559896" viewBox="0 0 167.0869141 242.6669922" xml:space="preserve"><defs><linearGradient id="a"><stop style="stop-color:#000;stop-opacity:1" offset="0"/><stop style="stop-color:#000;stop-opacity:.64885497" offset="1"/></linearGradient><linearGradient id="b"><stop style="stop-color:#fff;stop-opacity:.4351145" offset="0"/><stop style="stop-color:#000;stop-opacity:0" offset="1"/></linearGradient><linearGradient id="c"><stop style="stop-color:#fff;stop-opacity:.48854962" offset="0"/><stop style="stop-color:#000;stop-opacity:0" offset="1"/></linearGradient><linearGradient id="d"><stop style="stop-color:#fff;stop-opacity:.23664123" offset="0"/><stop style="stop-color:#000;stop-opacity:0" offset="1"/></linearGradient><linearGradient id="e"><stop style="stop-color:#fff;stop-opacity:.29007635" offset="0"/><stop style="stop-color:#000;stop-opacity:0" offset="1"/></linearGradient><linearGradient id="g"><stop style="stop-color:#df0000;stop-opacity:1" offset="0"/><stop style="stop-color:#df0000;stop-opacity:.64122134" offset="1"/></linearGradient><linearGradient id="f"><stop style="stop-color:#fff;stop-opacity:.4351145" offset="0"/><stop style="stop-color:#000;stop-opacity:0" offset="1"/></linearGradient></defs><g style="fill-rule:nonzero;clip-rule:nonzero;stroke:#000;stroke-miterlimit:4"><path style="fill:#fff;stroke-width:.5" d="M166.8369141 235.5478516c0 3.7773438-3.0869141 6.8691406-6.8710938 6.8691406H7.1108398C3.3359375 242.4169922.25 239.3251953.25 235.5478516V7.1201172C.25 3.3427734 3.3359375.25 7.1108398.25h152.8549805c3.7841797 0 6.8710938 3.0927734 6.8710938 6.8701172v228.4277344z"/></g><text xml:space="preserve" style="font-size:32px;font-style:normal;font-weight:400;line-height:125%;letter-spacing:0;word-spacing:0;fill:#df0000;fill-opacity:1;stroke:none;font-family:Bitstream Vera Sans" x="7.8456664" y="26.413288"><tspan x="7.8456664" y="26.413288" style="font-style:normal;font-variant:normal;font-weight:400;font-stretch:normal;fill:#df0000;fill-opacity:1;font-family:Arial;-inkscape-font-specification:Arial">2</tspan></text><text xml:space="preserve" style="font-size:32px;font-style:normal;font-weight:400;line-height:125%;letter-spacing:0;word-spacing:0;fill:#df0000;fill-opacity:1;stroke:none;font-family:Bitstream Vera Sans" x="-159.48785" y="-216.71518" transform="scale(-1)"><tspan x="-159.48785" y="-216.71518" style="font-style:normal;font-variant:normal;font-weight:400;font-stretch:normal;fill:#df0000;fill-opacity:1;font-family:Arial;-inkscape-font-specification:Arial">2</tspan></text><path style="fill:#df0000" d="M3.2433274-4.7253274C1.1263274-7.5893274 0-10.5 0-10.5s-1.1263274 2.9106726-3.2433274 5.7746726C-5.3613274-1.8623274-8 0-8 0s2.6386726 1.8613274 4.7566726 4.7263274C-1.1263274 7.5893274 0 10.5 0 10.5s1.1263274-2.9106726 3.2433274-5.7736726C5.3613274 1.8613274 8 0 8 0S5.3613274-1.8623274 3.2433274-4.7253274z" transform="matrix(1.4769 0 0 1.4769 16.968095 44.236162)"/><path style="fill:#df0000" d="M3.2433274-4.7253274C1.1263274-7.5893274 0-10.5 0-10.5s-1.1263274 2.9106726-3.2433274 5.7746726C-5.3613274-1.8623274-8 0-8 0s2.6386726 1.8613274 4.7566726 4.7263274C-1.1263274 7.5893274 0 10.5 0 10.5s1.1263274-2.9106726 3.2433274-5.7736726C5.3613274 1.8613274 8 0 8 0S5.3613274-1.8623274 3.2433274-4.7253274z" transform="matrix(1.4769 0 0 1.4769 150.62089 198.50346)"/><path style="fill:#df0000" d="M3.2433274-4.7253274C1.1263274-7.5893274 0-10.5 0-10.5s-1.1263274 2.9106726-3.2433274 5.7746726C-5.3613274-1.8623274-8 0-8 0s2.6386726 1.8613274 4.7566726 4.7263274C-1.1263274 7.5893274 0 10.5 0 10.5s1.1263274-2.9106726 3.2433274-5.7736726C5.3613274 1.8613274 8 0 8 0S5.3613274-1.8623274 3.2433274-4.7253274z" transform="translate(82.928726 184.02194) scale(2.58829)"/><path style="fill:#df0000" d="M3.2433274-4.7253274C1.1263274-7.5893274 0-10.5 0-10.5s-1.1263274 2.9106726-3.2433274 5.7746726C-5.3613274-1.8623274-8 0-8 0s2.6386726 1.8613274 4.7566726 4.7263274C-1.1263274 7.5893274 0 10.5 0 10.5s1.1263274-2.9106726 3.2433274-5.7736726C5.3613274 1.8613274 8 0 8 0S5.3613274-1.8623274 3.2433274-4.7253274z" transform="translate(82.928726 55.619539) scale(2.58829)"/></svg>