<svg xmlns="http://www.w3.org/2000/svg" width="222.78255213" height="323.5559896" viewBox="0 0 167.0869141 242.6669922" xml:space="preserve"><defs><linearGradient id="a"><stop style="stop-color:#000;stop-opacity:1" offset="0"/><stop style="stop-color:#000;stop-opacity:.64885497" offset="1"/></linearGradient><linearGradient id="b"><stop style="stop-color:#fff;stop-opacity:.4351145" offset="0"/><stop style="stop-color:#000;stop-opacity:0" offset="1"/></linearGradient><linearGradient id="c"><stop style="stop-color:#fff;stop-opacity:.48854962" offset="0"/><stop style="stop-color:#000;stop-opacity:0" offset="1"/></linearGradient><linearGradient id="d"><stop style="stop-color:#fff;stop-opacity:.23664123" offset="0"/><stop style="stop-color:#000;stop-opacity:0" offset="1"/></linearGradient><linearGradient id="e"><stop style="stop-color:#df0000;stop-opacity:1" offset="0"/><stop style="stop-color:#df0000;stop-opacity:.67175573" offset="1"/></linearGradient><linearGradient id="f"><stop style="stop-color:#fff;stop-opacity:.31297711" offset="0"/><stop style="stop-color:#000;stop-opacity:0" offset="1"/></linearGradient><linearGradient id="g"><stop style="stop-color:#fff;stop-opacity:.29007635" offset="0"/><stop style="stop-color:#000;stop-opacity:0" offset="1"/></linearGradient></defs><g style="fill-rule:nonzero;clip-rule:nonzero;stroke:#000;stroke-miterlimit:4"><path style="fill:#fff;stroke-width:.5" d="M166.8369141 235.5478516c0 3.7773438-3.0869141 6.8691406-6.8710938 6.8691406H7.1108398C3.3359375 242.4169922.25 239.3251953.25 235.5478516V7.1201172C.25 3.3427734 3.3359375.25 7.1108398.25h152.8549805c3.7841797 0 6.8710938 3.0927734 6.8710938 6.8701172v228.4277344z"/></g><text xml:space="preserve" style="font-size:32px;font-style:normal;font-weight:400;line-height:125%;letter-spacing:0;word-spacing:0;fill:#df0000;fill-opacity:1;stroke:none;font-family:Bitstream Vera Sans" x="8.775425" y="28.013288"><tspan x="8.775425" y="28.013288" style="font-style:normal;font-variant:normal;font-weight:400;font-stretch:normal;fill:#df0000;fill-opacity:1;font-family:Arial;-inkscape-font-specification:Arial">8</tspan></text><path style="fill:#df0000;fill-opacity:1" d="M3.676-9C.433-9 0-5.523 0-5.523S-.433-9-3.676-9C-5.946-9-8-7.441-8-4.5-8-.614-1.4208493 3.2938141 0 9 1.35201 3.2985969 8-.614 8-4.5 8-7.441 5.946-9 3.676-9z" transform="matrix(1.6743 0 0 1.567 17.177511 46.385321)"/><text xml:space="preserve" style="font-size:32px;font-style:normal;font-weight:400;line-height:125%;letter-spacing:0;word-spacing:0;fill:#df0000;fill-opacity:1;stroke:none;font-family:Bitstream Vera Sans" x="-158.81761" y="-213.51517" transform="scale(-1)"><tspan x="-158.81761" y="-213.51517" style="font-style:normal;font-variant:normal;font-weight:400;font-stretch:normal;fill:#df0000;fill-opacity:1;font-family:Arial;-inkscape-font-specification:Arial">8</tspan></text><path style="fill:#df0000;fill-opacity:1" d="M3.676-9C.433-9 0-5.523 0-5.523S-.433-9-3.676-9C-5.946-9-8-7.441-8-4.5-8-.614-1.4208493 3.2938141 0 9 1.35201 3.2985969 8-.614 8-4.5 8-7.441 5.946-9 3.676-9z" transform="matrix(-1.6743 0 0 -1.567 150.15601 195.14313)"/><path style="fill:#df0000;fill-opacity:1" d="M3.676-9C.433-9 0-5.523 0-5.523S-.433-9-3.676-9C-5.946-9-8-7.441-8-4.5-8-.614-1.4208493 3.2938141 0 9 1.35201 3.2985969 8-.614 8-4.5 8-7.441 5.946-9 3.676-9z" transform="matrix(2.779 0 0 2.60089 54.512268 31.603768)"/><path style="fill:#df0000;fill-opacity:1" d="M3.676-9C.433-9 0-5.523 0-5.523S-.433-9-3.676-9C-5.946-9-8-7.441-8-4.5-8-.614-1.4208493 3.2938141 0 9 1.35201 3.2985969 8-.614 8-4.5 8-7.441 5.946-9 3.676-9z" transform="matrix(-2.779 0 0 -2.60089 54.512268 208.00617)"/><path style="fill:#df0000;fill-opacity:1" d="M3.676-9C.433-9 0-5.523 0-5.523S-.433-9-3.676-9C-5.946-9-8-7.441-8-4.5-8-.614-1.4208493 3.2938141 0 9 1.35201 3.2985969 8-.614 8-4.5 8-7.441 5.946-9 3.676-9z" transform="matrix(2.779 0 0 2.60089 54.512268 125.30457)"/><path style="fill:#df0000;fill-opacity:1" d="M3.676-9C.433-9 0-5.523 0-5.523S-.433-9-3.676-9C-5.946-9-8-7.441-8-4.5-8-.614-1.4208493 3.2938141 0 9 1.35201 3.2985969 8-.614 8-4.5 8-7.441 5.946-9 3.676-9z" transform="matrix(2.779 0 0 2.60089 112.2504 31.272778)"/><path style="fill:#df0000;fill-opacity:1" d="M3.676-9C.433-9 0-5.523 0-5.523S-.433-9-3.676-9C-5.946-9-8-7.441-8-4.5-8-.614-1.4208493 3.2938141 0 9 1.35201 3.2985969 8-.614 8-4.5 8-7.441 5.946-9 3.676-9z" transform="matrix(-2.779 0 0 -2.60089 112.2504 209.27518)"/><path style="fill:#df0000;fill-opacity:1" d="M3.676-9C.433-9 0-5.523 0-5.523S-.433-9-3.676-9C-5.946-9-8-7.441-8-4.5-8-.614-1.4208493 3.2938141 0 9 1.35201 3.2985969 8-.614 8-4.5 8-7.441 5.946-9 3.676-9z" transform="matrix(2.779 0 0 2.60089 112.2504 124.97358)"/><path style="fill:#df0000;fill-opacity:1" d="M3.676-9C.433-9 0-5.523 0-5.523S-.433-9-3.676-9C-5.946-9-8-7.441-8-4.5-8-.614-1.4208493 3.2938141 0 9 1.35201 3.2985969 8-.614 8-4.5 8-7.441 5.946-9 3.676-9z" transform="matrix(2.779 0 0 2.60089 83.678269 76.705082)"/><path style="fill:#df0000;fill-opacity:1" d="M3.676-9C.433-9 0-5.523 0-5.523S-.433-9-3.676-9C-5.946-9-8-7.441-8-4.5-8-.614-1.4208493 3.2938141 0 9 1.35201 3.2985969 8-.614 8-4.5 8-7.441 5.946-9 3.676-9z" transform="matrix(-2.779 0 0 -2.60089 83.213395 162.70775)"/></svg>