<svg xmlns="http://www.w3.org/2000/svg" width="222.78255213" height="323.5559896" viewBox="0 0 167.0869141 242.6669922" xml:space="preserve"><defs><linearGradient id="a"><stop style="stop-color:#000;stop-opacity:1" offset="0"/><stop style="stop-color:#000;stop-opacity:.65648854" offset="1"/></linearGradient><linearGradient id="b"><stop style="stop-color:#fff;stop-opacity:.53435117" offset="0"/><stop style="stop-color:#000;stop-opacity:0" offset="1"/></linearGradient><linearGradient id="c"><stop style="stop-color:#fff;stop-opacity:.51908398" offset="0"/><stop style="stop-color:#000;stop-opacity:0" offset="1"/></linearGradient><linearGradient id="d"><stop style="stop-color:#fff;stop-opacity:.70229006" offset="0"/><stop style="stop-color:#000;stop-opacity:0" offset="1"/></linearGradient></defs><g style="fill-rule:nonzero;clip-rule:nonzero;stroke:#000;stroke-miterlimit:4"><path style="fill:#fff;stroke-width:.5" d="M166.8369141 235.5478516c0 3.7773438-3.0869141 6.8691406-6.8710938 6.8691406H7.1108398C3.3359375 242.4169922.25 239.3251953.25 235.5478516V7.1201172C.25 3.3427734 3.3359375.25 7.1108398.25h152.8549805c3.7841797 0 6.8710938 3.0927734 6.8710938 6.8701172v228.4277344z"/></g><text xml:space="preserve" style="font-size:32px;font-style:normal;font-weight:400;line-height:125%;letter-spacing:0;word-spacing:0;fill:#000;fill-opacity:1;stroke:none;font-family:Bitstream Vera Sans" x="8.3105459" y="27.548409"><tspan x="8.3105459" y="27.548409" style="font-style:normal;font-variant:normal;font-weight:400;font-stretch:normal;font-family:Arial;-inkscape-font-specification:Arial">9</tspan></text><path d="M50.291466 22.698228s2.375-1.9 2.375-4.534c0-1.542-1.369-4.102-4.534-4.102s-4.534 2.561-4.534 4.102c0 2.634 2.375 4.534 2.375 4.534-2.638-2.055-7.341-.652-7.341 3.455 0 2.056 1.68 4.318 4.318 4.318 3.165 0 4.534-3.455 4.534-3.455s.402 3.938-1.943 6.046h5.182c-2.345-2.107-1.943-6.046-1.943-6.046s1.369 3.455 4.534 3.455c2.639 0 4.318-2.263 4.318-4.318 0-4.107-4.703-5.51-7.341-3.455z" style="fill:#000" transform="translate(-54.024661 10.018072) scale(1.48565)"/><text xml:space="preserve" style="font-size:32px;font-style:normal;font-weight:400;line-height:125%;letter-spacing:0;word-spacing:0;fill:#000;fill-opacity:1;stroke:none;font-family:Bitstream Vera Sans" x="-158.86395" y="-214.4666" transform="scale(-1)"><tspan x="-158.86395" y="-214.4666" style="font-style:normal;font-variant:normal;font-weight:400;font-stretch:normal;font-family:Arial;-inkscape-font-specification:Arial">9</tspan></text><path d="M50.291466 22.698228s2.375-1.9 2.375-4.534c0-1.542-1.369-4.102-4.534-4.102s-4.534 2.561-4.534 4.102c0 2.634 2.375 4.534 2.375 4.534-2.638-2.055-7.341-.652-7.341 3.455 0 2.056 1.68 4.318 4.318 4.318 3.165 0 4.534-3.455 4.534-3.455s.402 3.938-1.943 6.046h5.182c-2.345-2.107-1.943-6.046-1.943-6.046s1.369 3.455 4.534 3.455c2.639 0 4.318-2.263 4.318-4.318 0-4.107-4.703-5.51-7.341-3.455z" style="fill:#000" transform="matrix(-1.48565 0 0 -1.48565 221.19916 232.46182)"/><path style="fill:#000" d="M57.572834 25.099947s5.967372-4.773898 5.967372-11.392027c0-3.8743954-3.43972-10.3065945-11.392028-10.3065945S40.75615 9.8360371 40.75615 13.70792c0 6.618129 5.967373 11.392027 5.967373 11.392027-6.62818-5.163348-18.444833-1.638201-18.444833 8.680956 0 5.16586 4.22113 10.849311 10.849311 10.849311 7.952308 0 11.392027-8.680956 11.392027-8.680956s1.010056 9.894531-4.881939 15.191045h13.020178c-5.891994-5.294001-4.881938-15.191045-4.881938-15.191045s3.439718 8.680956 11.392027 8.680956c6.630693 0 10.849311-5.685963 10.849311-10.849311 0-10.319157-11.816654-13.844304-18.444833-8.680956zM57.110434 93.200747s5.967372-4.773898 5.967372-11.392027c0-3.874396-3.43972-10.306594-11.392028-10.306594S40.29375 77.936837 40.29375 81.80872c0 6.618129 5.967373 11.392027 5.967373 11.392027-6.62818-5.163348-18.444833-1.638201-18.444833 8.680953 0 5.16587 4.22113 10.84932 10.849311 10.84932 7.952308 0 11.392027-8.68096 11.392027-8.68096s1.010056 9.89453-4.881939 15.19104h13.020178c-5.891994-5.294-4.881938-15.19104-4.881938-15.19104s3.439718 8.68096 11.392027 8.68096c6.630693 0 10.849311-5.68597 10.849311-10.84932 0-10.319154-11.816654-13.844301-18.444833-8.680953zM121.55789 24.926219s5.96737-4.773898 5.96737-11.392027c0-3.8743954-3.43971-10.3065945-11.39203-10.3065945-7.95231 0-11.39202 6.4347116-11.39202 10.3065945 0 6.618129 5.96737 11.392027 5.96737 11.392027-6.62818-5.163348-18.444834-1.638201-18.444834 8.680956 0 5.16586 4.22113 10.849311 10.849304 10.849311 7.95231 0 11.39203-8.680956 11.39203-8.680956s1.01006 9.894531-4.88193 15.191045h13.02017c-5.89199-5.294001-4.88193-15.191045-4.88193-15.191045s3.43971 8.680956 11.39202 8.680956c6.63069 0 10.84931-5.685963 10.84931-10.849311 0-10.319157-11.81665-13.844304-18.44483-8.680956zM121.55789 93.027019s5.96737-4.773898 5.96737-11.392028c0-3.874395-3.43971-10.306593-11.39203-10.306593-7.95231 0-11.39202 6.434711-11.39202 10.306593 0 6.61813 5.96737 11.392028 5.96737 11.392028-6.62818-5.163348-18.444834-1.638201-18.444834 8.680951 0 5.16587 4.22113 10.84932 10.849304 10.84932 7.95231 0 11.39203-8.68096 11.39203-8.68096s1.01006 9.89453-4.88193 15.19104h13.02017c-5.89199-5.294-4.88193-15.19104-4.88193-15.19104s3.43971 8.68096 11.39202 8.68096c6.63069 0 10.84931-5.68597 10.84931-10.84932 0-10.319152-11.81665-13.844299-18.44483-8.680951z"/><path style="fill:#000" d="M89.576544 59.281103s5.967372-4.773897 5.967372-11.392027c0-3.874395-3.43972-10.306594-11.392028-10.306594S72.75986 44.017194 72.75986 47.889076c0 6.61813 5.967373 11.392027 5.967373 11.392027-6.62818-5.163347-18.444833-1.638201-18.444833 8.680957 0 5.165859 4.22113 10.84931 10.849311 10.84931 7.952308 0 11.392027-8.680956 11.392027-8.680956s1.010056 9.894531-4.881939 15.191045h13.020178c-5.891994-5.294001-4.881938-15.191045-4.881938-15.191045s3.439718 8.680956 11.392027 8.680956c6.630694 0 10.849314-5.685963 10.849314-10.84931 0-10.319158-11.816657-13.844304-18.444836-8.680957zM110.06258 217.80216s-5.96737 4.77391-5.96737 11.39203c0 3.8744 3.43971 10.3066 11.39202 10.3066 7.95232 0 11.39203-6.43471 11.39203-10.3066 0-6.61812-5.96737-11.39203-5.96737-11.39203 6.62818 5.16335 18.44483 1.6382 18.44483-8.68095 0-5.16586-4.22112-10.84931-10.84931-10.84931-7.95231 0-11.39202 8.68095-11.39202 8.68095s-1.01006-9.89453 4.88193-15.19104h-13.02017c5.89199 5.294 4.88193 15.19104 4.88193 15.19104s-3.43972-8.68095-11.39203-8.68095c-6.630687 0-10.849305 5.68596-10.849305 10.84931 0 10.31915 11.816655 13.8443 18.444835 8.68095zM110.70832 149.70136s-5.96737 4.77391-5.96737 11.39203c0 3.8744 3.43971 10.3066 11.39202 10.3066 7.95232 0 11.39203-6.43471 11.39203-10.3066 0-6.61812-5.96737-11.39203-5.96737-11.39203 6.62818 5.16335 18.44483 1.6382 18.44483-8.68095 0-5.16586-4.22112-10.84931-10.84931-10.84931-7.95231 0-11.39202 8.68095-11.39202 8.68095s-1.01006-9.89453 4.88193-15.19104h-13.02017c5.89199 5.294 4.88193 15.19104 4.88193 15.19104s-3.43972-8.68095-11.39203-8.68095c-6.630687 0-10.849305 5.68596-10.849305 10.84931 0 10.31915 11.816655 13.8443 18.444835 8.68095zM46.077528 217.97589s-5.967372 4.77391-5.967372 11.39203c0 3.8744 3.43972 10.3066 11.392028 10.3066s11.392028-6.43471 11.392028-10.3066c0-6.61812-5.967373-11.39203-5.967373-11.39203 6.62818 5.16335 18.444833 1.6382 18.444833-8.68095 0-5.16586-4.22113-10.84931-10.849311-10.84931-7.952308 0-11.392027 8.68095-11.392027 8.68095s-1.010056-9.89453 4.881939-15.19104H44.992095c5.891994 5.294 4.881938 15.19104 4.881938 15.19104s-3.439718-8.68095-11.392027-8.68095c-6.630693 0-10.849311 5.68596-10.849311 10.84931 0 10.31915 11.816654 13.8443 18.444833 8.68095zM46.261118 149.87509s-5.967372 4.77391-5.967372 11.39203c0 3.8744 3.43972 10.3066 11.392028 10.3066s11.392028-6.43471 11.392028-10.3066c0-6.61812-5.967373-11.39203-5.967373-11.39203 6.62818 5.16335 18.444833 1.6382 18.444833-8.68095 0-5.16586-4.22113-10.84931-10.849311-10.84931-7.952308 0-11.392027 8.68095-11.392027 8.68095s-1.010056-9.89453 4.881939-15.19104H45.175685c5.891994 5.294 4.881938 15.19104 4.881938 15.19104s-3.439718-8.68095-11.392027-8.68095c-6.630693 0-10.849311 5.68596-10.849311 10.84931 0 10.31915 11.816654 13.8443 18.444833 8.68095z"/></svg>