<svg xmlns="http://www.w3.org/2000/svg" width="222.78255213" height="323.5559896" viewBox="0 0 167.0869141 242.6669922" xml:space="preserve"><g style="fill-rule:nonzero;clip-rule:nonzero;stroke:#000;stroke-miterlimit:4"><path style="fill:#fff;stroke-width:.5" d="M166.8369141 235.5478516c0 3.7773438-3.0869141 6.8691406-6.8710938 6.8691406H7.1108398C3.3359375 242.4169922.25 239.3251953.25 235.5478516V7.1201172C.25 3.3427734 3.3359375.25 7.1108398.25h152.8549805c3.7841797 0 6.8710938 3.0927734 6.8710938 6.8701172v228.4277344z"/></g><text xml:space="preserve" style="font-size:32px;font-style:normal;font-weight:400;line-height:125%;letter-spacing:0;word-spacing:0;fill:#000;fill-opacity:1;stroke:none;font-family:Bitstream Vera Sans" x="6.2456665" y="28.013288"><tspan x="6.2456665" y="28.013288" style="font-style:normal;font-variant:normal;font-weight:400;font-stretch:normal;font-family:Arial;-inkscape-font-specification:Arial">A</tspan></text><path d="M7.989 3.103C7.747-.954.242-8.59 0-10.5-.242-8.591-7.747-.955-7.989 3.103c-.169 2.868 1.695 4.057 3.39 4.057 1.8351685-.021581 3.3508701-2.8006944 3.873-3.341.242.716-1.603 6.682-2.179 6.682h5.811c-.576 0-2.421-5.966-2.179-6.682.4571472.4962961 1.7971276 3.2578295 3.874 3.341 1.694-.001 3.557-1.189 3.388-4.057z" style="fill:#000" transform="matrix(1.5086 0 0 1.37933 16.929041 45.066155)"/><text xml:space="preserve" style="font-size:32px;font-style:normal;font-weight:400;line-height:125%;letter-spacing:0;word-spacing:0;fill:#000;fill-opacity:1;stroke:none;font-family:Bitstream Vera Sans" x="-160.9081" y="-215.09668" transform="scale(-1)"><tspan x="-160.9081" y="-215.09668" style="font-style:normal;font-variant:normal;font-weight:400;font-stretch:normal;font-family:Arial;-inkscape-font-specification:Arial">A</tspan></text><path d="M7.989 3.103C7.747-.954.242-8.59 0-10.5-.242-8.591-7.747-.955-7.989 3.103c-.169 2.868 1.695 4.057 3.39 4.057 1.8351685-.021581 3.3508701-2.8006944 3.873-3.341.242.716-1.603 6.682-2.179 6.682h5.811c-.576 0-2.421-5.966-2.179-6.682.4571472.4962961 1.7971276 3.2578295 3.874 3.341 1.694-.001 3.557-1.189 3.388-4.057z" style="fill:#000" transform="matrix(-1.5086 0 0 -1.37933 150.22472 198.04381)"/><path style="fill:#000" d="M79.499884 183.52067c-7.825663-.004-14.294611-.0721-14.375442-.15058-.08083-.0784.556433-.6843 1.41614-1.34633 3.129803-2.41015 5.82705-6.42674 8.939298-13.31197 2.138924-4.73194 2.827079-6.63072 3.537577-9.761 1.136957-5.00918 1.100082-8.43722-.106334-9.88244l-.578348-.69283-2.330021 2.44783c-2.590332 2.7213-5.960917 5.03846-9.72161 6.68327-4.119511 1.80174-6.784963 2.37813-11.309527 2.44563-3.568349.0533-4.336544-.0397-6.886627-.83361-6.437862-2.00413-11.655299-6.59489-14.694031-12.9291-1.830591-3.81584-2.298361-5.92987-2.386797-10.78678-.07155-3.92941.01381-4.693.90732-8.11665 1.39538-5.34668 4.254075-11.96192 7.164444-16.57909 3.537289-5.61173 11.693284-16.027375 20.313205-25.941057 7.092262-8.156726 9.949925-11.790688 14.897956-18.945053 5.264362-7.611754 7.354275-11.260994 8.351272-14.582332.398558-1.327705.796951-2.414254.885323-2.414545.08838-.000051.604115 1.318967 1.146088 2.931685 2.155554 6.414219 7.733363 15.195072 15.82028 24.905027 1.43985 1.728837 5.63225 6.652642 9.31643 10.941774 12.06601 14.047271 17.15987 21.119471 21.65979 30.071891 3.48456 6.9324 4.85923 12.27582 4.69482 18.24911-.2101 7.63379-2.65496 13.02654-8.32167 18.35553-2.33439 2.19526-5.91473 4.2741-8.76107 5.08692-.88005.2513-3.26204.57442-5.29332.71803-6.08215.43-10.61641-.76163-16.934677-4.45056-2.96308-1.73-6.31222-4.52459-7.23775-6.03933-.747898-1.22403-1.321172-1.14597-1.882688.25637-.944202 2.35808-1.095406 4.48215-.520717 7.31498 1.79212 8.83394 7.521625 20.14822 12.441505 24.56872l1.987967 1.78618-3.955177.004c-2.17534.003-10.35798.00054-18.183636-.004zm12.990199-4.6718c-1.54204-1.23292-4.88293-5.99168-6.537557-9.31212-1.720695-3.45301-2.246699-5.98888-1.760111-8.4857.199514-1.02382.436517-2.23947.526667-2.70144.10511-.53869-.120277-1.37907-.628403-2.34301l-.792303-1.50306-.887695 1.69057-.887694 1.69056.586278 1.55707c.864906 2.29702.657897 5.63446-.505352 8.14775-1.470076 3.17619-6.396289 10.48996-7.665105 11.3801-1.485623 1.04223-.825524 1.00818 2.005154-.10338 2.039697-.801 2.691021-.8974 6.291918-.93135 4.137234-.039 7.911893.49761 9.559073 1.35894 1.53151.80083 1.93235.5443.69513-.4449zm-5.932746-2.06618c-1.911241-.41746-6.728576-.2968-8.513418.21323-.791313.22611-.789401.21657.175205-.87506 1.327257-1.50202 2.165934-3.09302 3.737666-7.09042 1.208595-3.07384 1.364301-3.31897 1.648801-2.59565.17279.43933.859555 2.284 1.52615 4.0993 1.167141 3.17843 1.893356 4.50656 3.29856 6.03257.736892.80025.779342.79535-1.872964.21603zm31.806263-21.73873c4.47648-1.70724 8.62798-5.69817 10.81009-10.39198 1.37333-2.95407 1.86115-4.73655 2.27699-8.32018.58299-5.02409-.26513-9.53245-2.99659-15.92897-3.61066-8.45541-8.68514-15.40766-19.29131-26.429895C93.039213 77.21685 89.04417 72.002992 85.250155 62.764948c-.649374-1.581152-1.288184-3.487855-1.419599-4.23712-.131408-.749273-.33459-1.35697-.451528-1.350443-.116926.0068-.581832 1.223146-1.033104 2.703604-2.714615 8.905634-8.834673 17.488226-23.072667 32.356421-9.924368 10.36365-11.468645 12.2021-15.53748 18.49729-5.314894 8.22306-7.76452 14.84115-8.039138 21.71919-.433032 10.84569 5.250386 20.11687 13.900262 22.67504 5.288741 1.56414 12.550328.29509 18.271077-3.19307 4.59608-2.80241 6.936154-5.11461 8.705311-8.60168.568781-1.12106 1.086063-2.1015 1.149514-2.17875.06343-.0773.639914.34802 1.281006.94504 1.122557 1.04538 3.089405 4.38524 3.904353 6.62989l.392139 1.08009 1.054935-2.52152c.700538-1.67447 1.631849-3.16362 2.772341-4.43295l1.717424-1.91145 1.147672 2.28505c2.61901 5.21457 9.92866 10.37187 17.373377 12.25781 3.18239.80617 8.25763.60153 10.99755-.44343zm-8.51277-.24843c-2.70952-.32153-4.41122-.84113-7.23852-2.21023-7.433617-3.59965-11.353557-7.60089-12.114297-12.36551-.13374-.83762-.39383-1.52069-.57798-1.51794-1.090745.0162-4.593455 4.0724-5.800258 6.71667-.273699.59973-.622816 1.09229-.775814 1.09457-.152988.003-.598419-.60572-.989835-1.35111-1.13328-2.15809-3.24555-4.93232-4.4123-5.79501-1.177452-.87063-1.172926-.8732-1.731719.98561-.597729 1.98831-1.823427 4.38642-3.017329 5.90344-1.218335 1.54808-6.37446 5.22242-9.02069 6.42831-5.946516 2.70981-12.949704 2.73784-17.656447.0707-4.031616-2.2846-7.050114-6.5175-8.551954-11.99258-2.12287-7.73907-.941802-15.02462 3.849282-23.7448 4.412703-8.03149 7.137672-11.64759 15.262442-20.253605 13.468832-14.26663 20.243454-23.052427 24.16566-31.339731 1.629868-3.443755 1.991845-3.267531 1.0702.521037-1.574608 6.472738-12.141122 22.150019-28.27926 41.957239-4.349348 5.3382-9.034938 13.18651-10.47194 17.54037-1.973714 5.98001-2.259067 10.79632-.931412 15.7207 1.887495 7.00088 5.787928 11.04211 11.494505 11.90944 8.277251 1.25805 15.680945-4.73911 20.582743-16.67244l1.183394-2.88096 1.623069 2.43049c1.760754 2.6367 5.339416 6.39232 6.080576 6.38126.568902-.008 4.756699-4.50737 6.135427-6.5912.55801-.84337 1.0939-1.53831 1.19087-1.54433.097-.006.37793.52841.62435 1.18758.24642.65918 1.02486 2.32946 1.72986 3.71175 4.99458 9.79291 11.616067 14.59561 19.274787 13.98037 3.40551-.27357 5.8682-1.72218 8.24814-4.85175 2.57863-3.39086 3.79835-6.56242 4.21327-10.95545.46079-4.87863-.76952-10.25929-3.79127-16.58075-1.69364-3.54309-6.70471-10.76475-10.68288-15.39554-7.7773-9.053155-20.649327-27.077158-24.185944-33.86627-.916814-1.759967-2.099528-5.620144-2.388842-7.796767-.233835-1.759223.124275-1.400744 1.066398 1.067497 1.53543 4.02264 5.327421 10.037561 9.525021 15.108766 2.63107 3.178645 5.534197 6.381122 12.821117 14.143129 4.6959 5.00208 7.67078 8.440955 11.04027 12.762215 5.76182 7.38937 10.49752 17.18334 11.63625 24.06515 1.11166 6.71829-1.57324 15.12452-6.24906 19.56537-1.82419 1.7325-5.44696 3.61556-8.13137 4.22655-2.28527.52014-3.08953.55162-5.81851.22779zm-2.84095-3.60325c-2.72731-.99214-5.00144-2.462-6.81103-4.40222-3.216797-3.44903-6.564507-9.25296-8.094727-14.03382-.80095-2.50248-1.08207-2.86633-1.39959-1.81158-.65305 2.16924-6.349791 10.41286-7.202669 10.42278-.604898.008-3.241647-3.40982-5.753324-7.45552-1.301408-2.09624-2.408046-3.85197-2.459199-3.90163-.05117-.0497-.386985 1.07756-.746286 2.50493-1.64218 6.52369-6.543979 14.35548-10.818945 17.28582-6.034333 4.13634-14.97475 2.31375-17.700753-3.60845-.72602-1.57726-1.346698-4.88755-.917618-4.89396.14714-.003.269733.14371.272426.32422.01065.71417 1.841643 2.95812 3.088892 3.78556 4.893924 3.24669 9.613792 2.71797 15.056531-1.68661 4.254747-3.44319 8.195062-11.21158 6.686391-13.18232-.390733-.51039-.424982-.43156-.300841.6925.184442 1.67005-.54283 2.78305-2.485911 3.8044-.839764.4414-1.665855 1.05939-1.835744 1.37332-.283474.52377-.385991.49916-1.245292-.29908-.515005-.4784-1.276206-.86475-1.691547-.85856-.742795.0111-.745164.0219-.144644.66598.728818.78158.852888 3.33501.25286 5.20391-.483358 1.5055-2.944016 4.15836-4.633345 4.99526-2.832798 1.40335-7.33947.47125-9.632837-1.99234-3.286152-3.53007-1.996808-9.45557 2.597153-11.93593 2.205721-1.19091 5.337625-.74174 6.995807 1.0033.777089.8178.782831.85966.27098 1.97556-.715868 1.5607-1.22152 1.66135-2.433989.48453-.95071-.92277-1.169573-.99137-2.64113-.82778-2.784795.30957-4.507816 2.84711-3.733162 5.49792.443807 1.51867 2.768884 3.59813 4.322192 3.86561 4.075202.70177 7.884272-3.79655 6.853678-8.09385-.32108-1.33882-.267637-1.80023.461614-3.98546 1.599804-4.79387.704987-12.2034-1.846127-15.28671-.504363-.60959-.512274-.59996-.198022.24119.340113.91041.179826 1.84805-.317199 1.85547-.157813.003-.289195-.14738-.29196-.33274-.0028-.18536-.607029-.59584-1.342811-.91216-1.676568-.7208-2.968409-.33993-3.678267 1.08445-.464768.93262-.459545.97039.101012.73065 1.329366-.56856 1.799451-.57708 3.005962-.0546 2.339391 1.0132 3.749259 3.86033 3.791133 7.65589.02536 2.2963-.476547 4.98852-.931217 4.9953-.09341.002-.718436-.41882-1.388963-.93379-1.615358-1.24063-2.632775-1.5787-4.635739-1.54033-3.343349.0641-6.595863 2.54207-8.368281 6.37564-.573715 1.24087-1.04206 2.62177-1.040769 3.06863.0022.77409-.01605.78238-.386891.17553-.537354-.87934-.501263-5.8997.06239-8.67821 1.417002-6.9851 6.992821-17.11235 13.366636-24.27754l1.715473-1.92848.231546 3.02426c.181544 2.37105.415849 3.37137 1.084813 4.63134 1.040337 1.95941 3.309232 4.05146 4.952955 4.56688 1.796258.56325 4.640348.22523 5.846798-.69487 1.256358-.95817 2.14696-2.93532 1.840102-4.08503-.161101-.60359-.11138-.81471.170829-.72529.68136.21589 1.615762 1.66782 1.939223 3.01328.329759 1.37166.02309 4.42082-.557832 5.54631-.580639 1.12495-2.451644 2.34991-4.375983 2.86497-2.934472.78545-3.534492 1.12436-4.07069 2.29924-.62663 1.37303-.322909 3.21951.608649 3.70033.627225.32374.631715.30829.117279-.40334-.683181-.94506-.675645-1.10233.09064-1.89183.545318-.56183 1.067115-.65965 3.765693-.70598 3.959423-.068 5.431711-.67582 6.571071-2.71284 1.247016-2.22949 1.530351-3.84093 1.078815-6.1355-.712407-3.62029-2.62163-6.61227-4.942163-7.74501-1.932944-.94352-3.485582-.96373-4.600051-.0598-1.009582.8188-1.112999 1.4555-.14964.92129.97899-.54288 2.139112.0631 2.733399 1.42791.418792.96172.426424 1.26652.055 2.19416-1.228773 3.06876-4.824942 3.36001-8.000277.64796-2.028958-1.73295-2.928701-3.62097-2.952248-6.19502-.03278-3.58619 1.768521-6.55299 4.922757-8.107815 1.255602-.61894 4.042935-.69354 5.635054-.15076 4.442755 1.514455 8.514721 7.151775 10.00765 13.854795.553029 2.48305 1.951044 13.20383 1.978715 15.17385.01133.80133-.240402 1.81007-.606495 2.4312-.794694 1.34824-.781294 2.22049.04138 2.71758.356729.21546.653471.71843.659427 1.11772.0064.43111.206594.72306.492795.71879.286208-.004.477565-.30206.471134-.73317-.0059-.39929.27566-.91089.625803-1.13689.772663-.4987.797398-1.38628.07614-2.73147-.441145-.82276-.511352-1.57466-.38062-4.07597.209282-4.00396 1.138553-10.50475 1.927301-13.48255 1.669219-6.30185 5.230556-11.64897 8.918356-13.39036 3.00405-1.418505 7.020194-.473105 9.386784 2.20968 1.50531 1.70642 1.91413 3.01462 1.81483 5.80739-.0698 1.96439-.25098 2.61172-1.17624 4.20312-1.47634 2.53922-3.57979 3.86866-5.867224 3.70822-1.32745-.0931-1.76644-.29973-2.67014-1.25678-.85303-.9033-1.08569-1.42102-1.10104-2.44991-.0257-1.71982 1.14872-3.03323 2.54761-2.84918 1.16095.15274 1.21121-.21946.12282-.90962-1.29669-.82224-3.62901-.41226-5.4967.96622-1.65986 1.22509-3.38055 3.83943-3.920238 5.95624-.475654 1.86568-.09853 5.28533.774408 7.02206 1.20112 2.38962 2.1989 2.86873 6.24115 2.99678 3.03267.0961 3.53735.19557 4.18496.82499.643464.62541.684554.80162.325584 1.39598-.339944.56282-.337654.65471.0139.53232.61665-.21504 1.01124-1.6419.73761-2.66715-.40829-1.52974-1.790904-2.55478-3.980274-2.95095-1.09099-.19741-2.36723-.65152-2.8361-1.00915-2.51396-1.91748-3.19931-7.16668-1.26654-9.70068.8811-1.1552 1.23995-1.08203 1.04943.21401-.20299 1.38082.54375 2.79088 2.07927 3.92627.92102.681 1.60512.88943 3.14811.95912 2.484054.11222 3.933574-.49871 5.837554-2.46037 2.05076-2.11288 2.73539-3.91791 2.71508-7.15842-.009-1.45698.0873-2.65154.21423-2.65458.39711-.009 4.81971 5.69152 7.63863 9.84676 5.97733 8.81084 8.52815 15.86007 8.07864 22.32535-.20231 2.90993-.65021 3.63084-.98754 1.58948-.44215-2.67574-3.31039-6.57526-5.92529-8.05574-1.13427-.6422-1.87833-.80849-3.60055-.8047-2.33799.005-3.72041.53273-5.24575 2.00195l-.84294.81193-.44164-.7491c-.28206-.4784-.45292-1.7942-.47281-3.64107-.0363-3.36957.64509-5.35532 2.51679-7.33468 1.48419-1.56957 2.72347-1.87573 3.97188-.98124l.93776.67193-.0138-.92375c-.0308-2.06259-2.87254-2.82441-4.86562-1.30437l-1.01217.77195.12811-.97378c.16615-1.26292-.38769-1.05983-1.45563.53376-1.24167 1.85283-1.76852 3.83328-1.90347 7.15513-.10265 2.52676.003 3.46982.60809 5.4544.40273 1.31969.73345 2.79712.73492 3.28319.002.48606-.0138 1.71557-.0339 2.73224-.0608 3.06491 1.29464 5.36567 3.82114 6.4863 3.71813 1.64921 7.54228-.68101 7.48441-4.56056-.0271-1.81994-.75455-2.97429-2.38685-3.78776-1.20798-.602-3.23173-.37706-4.12815.45883-.60079.56023-.65659.54636-1.63973-.40789-1.00282-.97334-1.00975-1.00054-.47182-1.84887 1.13391-1.78817 5.14469-2.75953 7.16742-1.73586.48095.24339 1.41701.9887 2.08014 1.65622 3.20886 3.23009 3.45654 7.60624.61856 10.929-2.28495 2.67527-4.65306 3.28223-8.27675 2.12138-2.61271-.83698-4.23508-2.12384-5.25409-4.16751-1.43651-2.881-1.44329-3.9142-.0442-6.73482.34303-.69156-1.40108-.0848-2.23964.77917-.74252.76502-1.03682.90212-1.2472.58102-.15145-.23115-.2791-.523-.28368-.64854-.004-.12556-.72271-.68088-1.595824-1.23405-2.23326-1.41489-3.14921-3.43505-2.34345-5.16857.31739-.68286.31188-.68542-.16182-.0757-1.07836 1.38793-.67881 3.64661 1.3038 7.37046 3.392094 6.37116 8.678474 10.27127 14.246144 10.51031 2.25475.0968 2.71133.0134 4.27682-.78172 1.8012-.91479 3.58824-2.75328 4.61729-4.75022l.58412-1.13355.0278 1.12442c.0599 2.41759-2.59763 6.83845-5.11328 8.50623-1.47035.97479-1.83153 1.06714-4.66615 1.19309-2.59098.11516-3.38498.0228-5.06701-.58906zm3.40792-8.52044c-.92034-.16507-2.35755-1.56865-2.92439-2.85595-.45011-1.02221-.66472-3.61594-.29965-3.62139.69434-.0104 2.061 1.21334 2.59948 2.32753.56408 1.16716.76419 1.31818 1.72754 1.30381 1.31051-.0195 1.98893-.84033 1.41201-1.70832-.20357-.30629-.67635-.54084-1.05061-.52121-.75139.0394-.89968-.47544-.31148-1.08144.40779-.42014 1.79667-.53837 2.6497-.22555.70532.25866 1.4872 1.78277 1.50435 2.93244.0165 1.10701-.94016 2.46831-2.21507 3.15188-.89072.47759-1.6717.5529-3.09188.2982zm-58.103094-.88147c-1.506323-1.34938-1.824075-2.85604-.918079-4.35317.722644-1.19414 1.941683-1.6473 3.085046-1.14681.958817.41971 1.093275 1.33351.162577 1.1049-.460895-.11321-.737556.0757-1.004896.68652-.3106.70957-.275286.94315.223445 1.47799.325793.34938.920919.63034 1.322504.62434.82256-.0123 2.041478-1.40877 2.027836-2.32326-.0049-.32961.190241-.60226.43368-.60589.243439-.003.619383-.22617.835426-.49453.653345-.81156.955733-.56396.976068.79921.04372 2.93097-1.548448 4.86251-4.224234 5.12465-1.611636.15789-1.814579.0957-2.919373-.89395zm30.624972-23.63312c-.01712-.75097-.243789-1.72379-.502932-2.16181-.662216-1.11932-.617326-1.64414.243622-2.84827l.752493-1.05244.749199 1.17274c.67449 1.05579.708477 1.27309.340789 2.17887-.224623.55338-.462653 1.6939-.528954 2.53449-.159826 2.02619-1.007903 2.16811-1.054217.17642zm-1.687747-7.92704c-.694491-3.27162-2.796489-6.85959-5.647175-9.63938-3.009235-2.934385-5.471918-4.207475-7.463786-3.858415-1.061903.18609-1.253443.13302-1.25095-.34652.0046-.8927.722231-2.00707 1.737621-2.69836 1.841896-1.253992 3.201583-.761499 6.138495 2.2234 4.287089 4.357145 7.36398 10.301285 7.424266 14.342685.03293 2.20778-.467491 2.19529-.93847-.0233zm3.194112.19143c-.05053-3.89737 2.668778-9.73424 6.46653-13.882315 3.74322-4.088495 6.25974-4.729088 8.36765-2.13005.37605.46367.68836 1.15391.69403 1.5339.009.62817-.1574.69236-1.83739.70718-2.58114.0228-4.51103 1.08454-7.44159 4.094225-2.831275 2.90772-4.778013 6.31108-5.32886 9.31616-.205675 1.122-.492015 2.04176-.636315 2.04392-.1443.003-.272117-.75521-.284055-1.68302zm-1.366072-5.16727c-.04199-2.81446-.654152-6.042995-2.649892-13.975317-1.925096-7.651577-1.672235-11.79488 1.030865-16.891199.600051-1.131316 1.257091-2.68418 1.46007-3.450809l.369073-1.393859.415662 1.27932c.228613.703627.945471 2.374097 1.593002 3.712165 2.521989 5.211401 2.86102 8.795699 1.393449 14.731931-1.280204 5.178293-2.321931 10.366973-2.81575 14.024768-.473203 3.50509-.762828 4.2189-.796479 1.963zm-3.787787-6.299725c-.498627-.72958-1.755044-2.33782-2.792052-3.57388-2.305791-2.748393-3.253864-4.514215-3.52884-6.572629-.365224-2.733909.787098-4.443869 2.727793-4.04787 1.874689.382536 2.752619 2.687297 3.685066 9.674059.384037 2.87757.786051 5.36938.89335 5.53736.107308.167955.133499.306315.05818.307435-.07531.001-.54489-.594885-1.043501-1.324475zm7.391498.42633c.06832-.53129.263589-2.41429.433862-4.18442.549238-5.709542 1.584942-8.859439 3.336159-10.146199 1.17358-.862332 1.69702-.868534 2.47847-.02936.48381.519524.6265 1.142836.64157 2.802514.0246 2.713138-.44407 3.710437-3.54809 7.55-1.347278 1.66653-2.678346 3.46733-2.957922 4.00177l-.508325.97172zm-14.893561-7.68165c-.918362-.576776-1.543401-.584216-2.913944-.03473-.486618.195104-.468523.05907.139029-1.045193.384153-.698226 1.18538-1.843187 1.7805-2.544358l1.082024-1.274866.02177 1.459019c.01197.802471.241135 2.052435.509254 2.777689.268112.725262.457591 1.30854.421056 1.296159-.03657-.01239-.504387-.297566-1.039684-.633753zm22.476692-.817895c.1234-.692089.30537-1.97266.40438-2.845702l.18002-1.587358.85321 1.250563c.46926.687813 1.10297 1.716863 1.40824 2.286773l.55502 1.036209-1.06134.01583c-.58374.0087-1.39942.26023-1.81263.558938l-.75127.543089zm-17.259475-7.917913c-.42239-.341337-1.041132-.616537-1.375001-.611557-.333856.005-.60794-.05298-.609073-.128881-.0036-.245521 2.494381-4.029027 2.781075-4.212178.154534-.09872.183724.384022.06577 1.088135-.116576.69607-.130996 1.993965-.03204 2.884217.09897.890252.125329 1.614648.05859 1.60976-.06678-.0049-.466952-.288158-.889333-.629496zm11.924202-2.122023c.0073-1.397933.04399-2.542834.08161-2.544216.128918-.0053 2.719738 3.779135 2.722688 3.97648.002.108497-.14779.107176-.332-.0026-.18422-.110086-.81883.09515-1.41024.456087l-1.075302.656267z"/></svg>