<svg xmlns="http://www.w3.org/2000/svg" xmlns:xlink="http://www.w3.org/1999/xlink" width="222.78255213" height="323.5559896" viewBox="0 0 167.0869141 242.6669922" xml:space="preserve"><defs><radialGradient xlink:href="#a" id="e" cx="48.231091" cy="18.137882" fx="48.231091" fy="18.137882" r="9.5" gradientUnits="userSpaceOnUse" gradientTransform="matrix(-1.56053 .01828 -.02684 -2.29095 123.98377 58.809108)"/><radialGradient xlink:href="#b" id="f" cx="171.48665" cy="511.22299" fx="171.48665" fy="511.22299" r="81.902771" gradientTransform="matrix(1.15299 -.67392 .39482 .67549 -233.63262 270.40076)" gradientUnits="userSpaceOnUse"/><radialGradient r="81.902771" fy="511.22299" fx="171.48665" cy="511.22299" cx="171.48665" gradientTransform="matrix(1.15299 -.67392 .39482 .67549 -233.63262 270.40076)" gradientUnits="userSpaceOnUse" id="g" xlink:href="#c"/><radialGradient r="81.902771" fy="461.84113" fx="181.69392" cy="461.84113" cx="181.69392" gradientTransform="matrix(1.15299 -.67392 .39482 .67549 -233.63262 270.40076)" gradientUnits="userSpaceOnUse" id="h" xlink:href="#d"/><linearGradient id="a"><stop offset="0"/><stop offset="1" stop-opacity=".65648854"/></linearGradient><linearGradient id="b"><stop offset="0" stop-color="#fff" stop-opacity=".53435117"/><stop offset="1" stop-opacity="0"/></linearGradient><linearGradient id="c"><stop offset="0" stop-color="#fff" stop-opacity=".51908398"/><stop offset="1" stop-opacity="0"/></linearGradient><linearGradient id="d"><stop offset="0" stop-color="#fff" stop-opacity=".70229006"/><stop offset="1" stop-opacity="0"/></linearGradient></defs><path d="M166.8369141 235.5478516c0 3.7773438-3.0869141 6.8691406-6.8710938 6.8691406H7.1108398C3.3359375 242.4169922.25 239.3251953.25 235.5478516V7.1201172C.25 3.3427734 3.3359375.25 7.1108398.25h152.8549805c3.7841797 0 6.8710938 3.0927734 6.8710938 6.8701172v228.4277344z" fill="#fff" stroke-width=".5" stroke="#000"/><text xml:space="preserve" style="line-height:125%" x="6.7105455" y="27.548409" font-size="32" font-weight="400" letter-spacing="0" word-spacing="0" font-family="Bitstream Vera Sans"><tspan x="6.7105455" y="27.548409" style="-inkscape-font-specification:Arial" font-family="Arial">A</tspan></text><path d="M50.291466 22.698228s2.375-1.9 2.375-4.534c0-1.542-1.369-4.102-4.534-4.102s-4.534 2.561-4.534 4.102c0 2.634 2.375 4.534 2.375 4.534-2.638-2.055-7.341-.652-7.341 3.455 0 2.056 1.68 4.318 4.318 4.318 3.165 0 4.534-3.455 4.534-3.455s.402 3.938-1.943 6.046h5.182c-2.345-2.107-1.943-6.046-1.943-6.046s1.369 3.455 4.534 3.455c2.639 0 4.318-2.263 4.318-4.318 0-4.107-4.703-5.51-7.341-3.455z" transform="translate(-203.77662856 -22.11418602) scale(5.97203)" fill="url(#e)"/><path transform="matrix(.22864 0 0 .24885 1.171169 -6.44000348)" d="M117.3013 604.26609s-8.06755-94.94997 22.85715-122.85714c34.76052-31.36871 140-11.42857 140-11.42857s-71.5404 24.83762-100 48.57143c-27.21033 22.69199-62.85715 85.71428-62.85715 85.71428z" fill="url(#f)" filter="url(#filter3834)"/><path transform="matrix(.22864 0 0 .24885 33.04163776 -51.98243113)" d="M117.3013 604.26609s-8.06755-94.94997 22.85715-122.85714c34.76052-31.36871 140-11.42857 140-11.42857s-71.5404 24.83762-100 48.57143c-27.21033 22.69199-62.85715 85.71428-62.85715 85.71428z" fill="url(#g)" filter="url(#filter3834-6)"/><path transform="matrix(.23543 .1449 -.17355 .28197 159.22763252 -46.37715881)" d="M117.3013 604.26609s-8.06755-94.94997 22.85715-122.85714c34.76052-31.36871 140-11.42857 140-11.42857s-71.5404 24.83762-100 48.57143c-27.21033 22.69199-62.85715 85.71428-62.85715 85.71428z" fill="url(#h)" filter="url(#filter3834-7)"/><path d="M14.71603922 41.6682581V193.0403378h137.53426053V41.6682581H14.71603922zm68.91208134 20.12539375c18.9018502 0 27.08295419 15.2905846 27.08295419 24.49963907 0 15.7306427-14.18569688 27.07651406-14.18569688 27.07651406 15.75453136-12.27276918 43.83908594-3.89329324 43.83908594 20.63432656 0 12.27276918-10.02757098 25.78807656-25.78807656 25.78807656-18.9018564 0-27.076512-20.63432656-27.076512-20.63432656s-2.4023113 23.52514121 11.60237762 36.10846094H68.15398618c14.004691-12.5892919 11.60882188-36.10846094 11.60882188-36.10846094S71.58814833 159.7922081 52.686294 159.7922081c-15.75453136 0-25.78807822-13.50933521-25.78807822-25.78807656 0-24.5276198 28.08455623-32.90709574 43.8390876-20.63432656 0 0-14.18569688-11.34587137-14.18569688-27.07651406 0-9.2030823 8.17465973-24.49963907 27.07651406-24.49963907z" fill="#fffeff"/><path d="M20.69085546 43.73969443s3.52841875-2.822735 3.52841875-6.7359371c0-2.2908723-2.03385485-6.0941363-6.7359371-6.0941363s-6.7359371 3.80474965-6.7359371 6.0941363c0 3.9132021 3.52841875 6.7359371 3.52841875 6.7359371-3.9191447-3.05301075-10.90615665-.9686438-10.90615665 5.13292075 0 3.0544964 2.495892 6.4150367 6.4150367 6.4150367 4.70208225 0 6.7359371-5.13292075 6.7359371-5.13292075s.5972313 5.8504897-2.88661795 8.9822399h7.6986383c-3.48384925-3.13026455-2.88661795-8.9822399-2.88661795-8.9822399s2.03385485 5.13292075 6.7359371 5.13292075c3.92063035 0 6.4150367-3.36202595 6.4150367-6.4150367 0-6.10156455-6.98701195-8.1859315-10.90615665-5.13292075z"/><text xml:space="preserve" style="line-height:125%" x="-160.46396" y="-214.4666" transform="scale(-1)" font-size="32" font-weight="400" letter-spacing="0" word-spacing="0" font-family="Bitstream Vera Sans"><tspan x="-160.46396" y="-214.4666" style="-inkscape-font-specification:Arial" font-family="Arial">A</tspan></text><path d="M146.48364354 198.74019757s-3.52841875 2.822735-3.52841875 6.7359371c0 2.2908723 2.03385485 6.0941363 6.7359371 6.0941363s6.7359371-3.80474965 6.7359371-6.0941363c0-3.9132021-3.52841875-6.7359371-3.52841875-6.7359371 3.9191447 3.05301075 10.90615665.9686438 10.90615665-5.13292075 0-3.0544964-2.495892-6.4150367-6.4150367-6.4150367-4.70208225 0-6.7359371 5.13292075-6.7359371 5.13292075s-.5972313-5.8504897 2.88661795-8.9822399h-7.6986383c3.48384925 3.13026455 2.88661795 8.9822399 2.88661795 8.9822399s-2.03385485-5.13292075-6.7359371-5.13292075c-3.92063035 0-6.4150367 3.36202595-6.4150367 6.4150367 0 6.10156455 6.98701195 8.1859315 10.90615665 5.13292075z"/></svg>