<svg xmlns="http://www.w3.org/2000/svg" xmlns:xlink="http://www.w3.org/1999/xlink" width="222.78255213" height="323.5559896" viewBox="0 0 167.0869141 242.6669922" xml:space="preserve"><defs><radialGradient xlink:href="#a" id="e" cx="48.231091" cy="18.137882" fx="48.231091" fy="18.137882" r="9.5" gradientUnits="userSpaceOnUse" gradientTransform="matrix(-1.56053 .01828 -.02684 -2.29095 123.98377 58.809108)"/><radialGradient xlink:href="#b" id="f" cx="171.48665" cy="511.22299" fx="171.48665" fy="511.22299" r="81.902771" gradientTransform="matrix(1.15299 -.67392 .39482 .67549 -233.63262 270.40076)" gradientUnits="userSpaceOnUse"/><radialGradient r="81.902771" fy="511.22299" fx="171.48665" cy="511.22299" cx="171.48665" gradientTransform="matrix(1.15299 -.67392 .39482 .67549 -233.63262 270.40076)" gradientUnits="userSpaceOnUse" id="g" xlink:href="#c"/><radialGradient r="81.902771" fy="461.84113" fx="181.69392" cy="461.84113" cx="181.69392" gradientTransform="matrix(1.15299 -.67392 .39482 .67549 -233.63262 270.40076)" gradientUnits="userSpaceOnUse" id="h" xlink:href="#d"/><linearGradient id="a"><stop style="stop-color:#000;stop-opacity:1" offset="0"/><stop style="stop-color:#000;stop-opacity:.65648854" offset="1"/></linearGradient><linearGradient id="b"><stop style="stop-color:#fff;stop-opacity:.53435117" offset="0"/><stop style="stop-color:#000;stop-opacity:0" offset="1"/></linearGradient><linearGradient id="c"><stop style="stop-color:#fff;stop-opacity:.51908398" offset="0"/><stop style="stop-color:#000;stop-opacity:0" offset="1"/></linearGradient><linearGradient id="d"><stop style="stop-color:#fff;stop-opacity:.70229006" offset="0"/><stop style="stop-color:#000;stop-opacity:0" offset="1"/></linearGradient></defs><g style="fill-rule:nonzero;clip-rule:nonzero;stroke:#000;stroke-miterlimit:4"><path style="fill:#fff;stroke-width:.5" d="M166.8369141 235.5478516c0 3.7773438-3.0869141 6.8691406-6.8710938 6.8691406H7.1108398C3.3359375 242.4169922.25 239.3251953.25 235.5478516V7.1201172C.25 3.3427734 3.3359375.25 7.1108398.25h152.8549805c3.7841797 0 6.8710938 3.0927734 6.8710938 6.8701172v228.4277344z"/></g><text xml:space="preserve" style="font-size:32px;font-style:normal;font-weight:400;line-height:125%;letter-spacing:0;word-spacing:0;fill:#000;fill-opacity:1;stroke:none;font-family:Bitstream Vera Sans" x="6.7105455" y="27.548409"><tspan x="6.7105455" y="27.548409" style="font-style:normal;font-variant:normal;font-weight:400;font-stretch:normal;font-family:Arial;-inkscape-font-specification:Arial">A</tspan></text><path style="fill:url(#e);fill-opacity:1" d="M50.291466 22.698228s2.375-1.9 2.375-4.534c0-1.542-1.369-4.102-4.534-4.102s-4.534 2.561-4.534 4.102c0 2.634 2.375 4.534 2.375 4.534-2.638-2.055-7.341-.652-7.341 3.455 0 2.056 1.68 4.318 4.318 4.318 3.165 0 4.534-3.455 4.534-3.455s.402 3.938-1.943 6.046h5.182c-2.345-2.107-1.943-6.046-1.943-6.046s1.369 3.455 4.534 3.455c2.639 0 4.318-2.263 4.318-4.318 0-4.107-4.703-5.51-7.341-3.455z" transform="matrix(5.97203 0 0 5.97203 -203.77662856 -22.11418602)"/><path transform="matrix(.22864 0 0 .24885 1.171169 -6.44000348)" d="M117.3013 604.26609s-8.06755-94.94997 22.85715-122.85714c34.76052-31.36871 140-11.42857 140-11.42857s-71.5404 24.83762-100 48.57143c-27.21033 22.69199-62.85715 85.71428-62.85715 85.71428z" style="fill:url(#f);fill-opacity:1;stroke:none;filter:url(#filter3834)"/><path transform="matrix(.22864 0 0 .24885 33.04163776 -51.98243113)" d="M117.3013 604.26609s-8.06755-94.94997 22.85715-122.85714c34.76052-31.36871 140-11.42857 140-11.42857s-71.5404 24.83762-100 48.57143c-27.21033 22.69199-62.85715 85.71428-62.85715 85.71428z" style="fill:url(#g);fill-opacity:1;stroke:none;filter:url(#filter3834-6)"/><path transform="matrix(.23543 .1449 -.17355 .28197 159.22763252 -46.37715881)" d="M117.3013 604.26609s-8.06755-94.94997 22.85715-122.85714c34.76052-31.36871 140-11.42857 140-11.42857s-71.5404 24.83762-100 48.57143c-27.21033 22.69199-62.85715 85.71428-62.85715 85.71428z" style="fill:url(#h);fill-opacity:1;stroke:none;filter:url(#filter3834-7)"/><path d="M28.355532 122.02522v734.28125H695.51178V122.02522H28.355532zm334.281258 97.625c91.68979 0 131.37499 74.17213 131.37499 118.84375 0 76.30678-68.8125 131.34375-68.8125 131.34375 76.42266-59.5332 212.65625-18.88573 212.65625 100.09375 0 59.5332-48.64211 125.09375-125.09375 125.09375-91.68982 0-131.34374-100.09375-131.34374-100.09375s-11.65322 114.11662 56.28124 175.15625H287.57429c67.93447-61.0686 56.3125-175.15625 56.3125-175.15625s-39.65394 100.09375-131.34375 100.09375c-76.42266 0-125.093758-65.53158-125.093758-125.09375 0-118.97948 136.233598-159.62695 212.656258-100.09375 0 0-68.8125-55.03697-68.8125-131.34375 0-44.64265 39.65394-118.84375 131.34375-118.84375z" style="fill:#fffeff;fill-opacity:1;fill-rule:nonzero;stroke:none" transform="matrix(.20615 0 0 .20615 8.8705463 16.512759)"/><g><path d="M50.291466 22.698228s2.375-1.9 2.375-4.534c0-1.542-1.369-4.102-4.534-4.102s-4.534 2.561-4.534 4.102c0 2.634 2.375 4.534 2.375 4.534-2.638-2.055-7.341-.652-7.341 3.455 0 2.056 1.68 4.318 4.318 4.318 3.165 0 4.534-3.455 4.534-3.455s.402 3.938-1.943 6.046h5.182c-2.345-2.107-1.943-6.046-1.943-6.046s1.369 3.455 4.534 3.455c2.639 0 4.318-2.263 4.318-4.318 0-4.107-4.703-5.51-7.341-3.455z" style="fill:#000" transform="translate(-54.024661 10.018072) scale(1.48565)"/></g><text xml:space="preserve" style="font-size:32px;font-style:normal;font-weight:400;line-height:125%;letter-spacing:0;word-spacing:0;fill:#000;fill-opacity:1;stroke:none;font-family:Bitstream Vera Sans" x="-160.46396" y="-214.4666" transform="scale(-1)"><tspan x="-160.46396" y="-214.4666" style="font-style:normal;font-variant:normal;font-weight:400;font-stretch:normal;font-family:Arial;-inkscape-font-specification:Arial">A</tspan></text><g><path d="M50.291466 22.698228s2.375-1.9 2.375-4.534c0-1.542-1.369-4.102-4.534-4.102s-4.534 2.561-4.534 4.102c0 2.634 2.375 4.534 2.375 4.534-2.638-2.055-7.341-.652-7.341 3.455 0 2.056 1.68 4.318 4.318 4.318 3.165 0 4.534-3.455 4.534-3.455s.402 3.938-1.943 6.046h5.182c-2.345-2.107-1.943-6.046-1.943-6.046s1.369 3.455 4.534 3.455c2.639 0 4.318-2.263 4.318-4.318 0-4.107-4.703-5.51-7.341-3.455z" style="fill:#000" transform="matrix(-1.48565 0 0 -1.48565 221.19916 232.46182)"/></g></svg>