<svg xmlns="http://www.w3.org/2000/svg" width="222.78255213" height="323.5559896" viewBox="0 0 167.0869141 242.6669922" xml:space="preserve"><g style="fill-rule:nonzero;clip-rule:nonzero;stroke:#000;stroke-miterlimit:4"><path style="fill:#fff;stroke-width:.5" d="M166.8369141 235.5478516c0 3.7773438-3.0869141 6.8691406-6.8710938 6.8691406H7.1108398C3.3359375 242.4169922.25 239.3251953.25 235.5478516V7.1201172C.25 3.3427734 3.3359375.25 7.1108398.25h152.8549805c3.7841797 0 6.8710938 3.0927734 6.8710938 6.8701172v228.4277344z"/></g><text xml:space="preserve" style="font-size:32px;font-style:normal;font-weight:400;line-height:125%;letter-spacing:0;word-spacing:0;fill:#000;fill-opacity:1;stroke:none;font-family:Bitstream Vera Sans" x="3.9446316" y="27.355848"><tspan x="3.9446316" y="27.355848" style="font-style:italic;font-variant:normal;font-weight:700;font-stretch:normal;font-family:LMMathSymbols9;-inkscape-font-specification:LMMathSymbols9 Bold Italic">J</tspan></text><path d="M7.989 3.103C7.747-.954.242-8.59 0-10.5-.242-8.591-7.747-.955-7.989 3.103c-.169 2.868 1.695 4.057 3.39 4.057 1.8351685-.021581 3.3508701-2.8006944 3.873-3.341.242.716-1.603 6.682-2.179 6.682h5.811c-.576 0-2.421-5.966-2.179-6.682.4571472.4962961 1.7971276 3.2578295 3.874 3.341 1.694-.001 3.557-1.189 3.388-4.057z" style="fill:#000" transform="matrix(2.27118 2.27118 -2.07656 2.07656 117.0668 94.436511)"/><text xml:space="preserve" style="font-size:32px;font-style:normal;font-weight:400;line-height:125%;letter-spacing:0;word-spacing:0;fill:#000;fill-opacity:1;stroke:none;font-family:Bitstream Vera Sans" x="4.2733507" y="49.051323"><tspan x="4.2733507" y="49.051323" style="font-size:38.40000153px;font-style:italic;font-variant:normal;font-weight:700;font-stretch:normal;font-family:URW Chancery L;-inkscape-font-specification:URW Chancery L Bold Italic">o</tspan></text><text xml:space="preserve" style="font-size:32px;font-style:normal;font-weight:400;line-height:125%;letter-spacing:0;word-spacing:0;fill:#000;fill-opacity:1;stroke:none;font-family:Bitstream Vera Sans" x="2.6297548" y="76.992462"><tspan x="2.6297548" y="76.992462" style="font-size:38.40000153px;font-style:italic;font-variant:normal;font-weight:700;font-stretch:normal;font-family:URW Chancery L;-inkscape-font-specification:URW Chancery L Bold Italic">k</tspan></text><text xml:space="preserve" style="font-size:32px;font-style:normal;font-weight:400;line-height:125%;letter-spacing:0;word-spacing:0;fill:#000;fill-opacity:1;stroke:none;font-family:Bitstream Vera Sans" x="2.6297553" y="99.345383"><tspan x="2.6297553" y="99.345383" style="font-size:38.40000153px;font-style:italic;font-variant:normal;font-weight:700;font-stretch:normal;font-family:URW Chancery L;-inkscape-font-specification:URW Chancery L Bold Italic">e</tspan></text><text xml:space="preserve" style="font-size:32px;font-style:normal;font-weight:400;line-height:125%;letter-spacing:0;word-spacing:0;fill:#000;fill-opacity:1;stroke:none;font-family:Bitstream Vera Sans" x="2.3010359" y="120.3834"><tspan x="2.3010359" y="120.3834" style="font-size:38.40000153px;font-style:italic;font-variant:normal;font-weight:700;font-stretch:normal;font-family:URW Chancery L;-inkscape-font-specification:URW Chancery L Bold Italic">r</tspan></text><path style="fill:#df0000" d="M3.676-9C.433-9 0-5.523 0-5.523S-.433-9-3.676-9C-5.946-9-8-7.441-8-4.5-8-.614-1.4208493 3.2938141 0 9 1.35201 3.2985969 8-.614 8-4.5 8-7.441 5.946-9 3.676-9z" transform="matrix(2.37438 -2.37438 2.2222 2.2222 59.383523 95.635421)"/><path d="M50.291466 22.698228s2.375-1.9 2.375-4.534c0-1.542-1.369-4.102-4.534-4.102s-4.534 2.561-4.534 4.102c0 2.634 2.375 4.534 2.375 4.534-2.638-2.055-7.341-.652-7.341 3.455 0 2.056 1.68 4.318 4.318 4.318 3.165 0 4.534-3.455 4.534-3.455s.402 3.938-1.943 6.046h5.182c-2.345-2.107-1.943-6.046-1.943-6.046s1.369 3.455 4.534 3.455c2.639 0 4.318-2.263 4.318-4.318 0-4.107-4.703-5.51-7.341-3.455z" style="fill:#000" transform="scale(-3.03455) rotate(45 103.4774245 -94.21842259)"/><path style="fill:#df0000" d="M3.2433274-4.7253274C1.1263274-7.5893274 0-10.5 0-10.5s-1.1263274 2.9106726-3.2433274 5.7746726C-5.3613274-1.8623274-8 0-8 0s2.6386726 1.8613274 4.7566726 4.7263274C-1.1263274 7.5893274 0 10.5 0 10.5s1.1263274-2.9106726 3.2433274-5.7736726C5.3613274 1.8613274 8 0 8 0S5.3613274-1.8623274 3.2433274-4.7253274z" transform="scale(3.16079) rotate(-45 78.27322769 -20.2800119)"/><text xml:space="preserve" style="font-size:32px;font-style:normal;font-weight:400;line-height:125%;letter-spacing:0;word-spacing:0;fill:#000;fill-opacity:1;stroke:none;font-family:Bitstream Vera Sans" x="-163.71599" y="-215.00195" transform="scale(-1)"><tspan x="-163.71599" y="-215.00195" style="font-style:italic;font-variant:normal;font-weight:700;font-stretch:normal;font-family:LMMathSymbols9;-inkscape-font-specification:LMMathSymbols9 Bold Italic">J</tspan></text><text xml:space="preserve" style="font-size:32px;font-style:normal;font-weight:400;line-height:125%;letter-spacing:0;word-spacing:0;fill:#000;fill-opacity:1;stroke:none;font-family:Bitstream Vera Sans" x="-163.38727" y="-193.30647" transform="scale(-1)"><tspan x="-163.38727" y="-193.30647" style="font-size:38.40000153px;font-style:italic;font-variant:normal;font-weight:700;font-stretch:normal;font-family:URW Chancery L;-inkscape-font-specification:URW Chancery L Bold Italic">o</tspan></text><text xml:space="preserve" style="font-size:32px;font-style:normal;font-weight:400;line-height:125%;letter-spacing:0;word-spacing:0;fill:#000;fill-opacity:1;stroke:none;font-family:Bitstream Vera Sans" x="-165.03085" y="-165.36533" transform="scale(-1)"><tspan x="-165.03085" y="-165.36533" style="font-size:38.40000153px;font-style:italic;font-variant:normal;font-weight:700;font-stretch:normal;font-family:URW Chancery L;-inkscape-font-specification:URW Chancery L Bold Italic">k</tspan></text><text xml:space="preserve" style="font-size:32px;font-style:normal;font-weight:400;line-height:125%;letter-spacing:0;word-spacing:0;fill:#000;fill-opacity:1;stroke:none;font-family:Bitstream Vera Sans" x="-165.03085" y="-143.01241" transform="scale(-1)"><tspan x="-165.03085" y="-143.01241" style="font-size:38.40000153px;font-style:italic;font-variant:normal;font-weight:700;font-stretch:normal;font-family:URW Chancery L;-inkscape-font-specification:URW Chancery L Bold Italic">e</tspan></text><text xml:space="preserve" style="font-size:32px;font-style:normal;font-weight:400;line-height:125%;letter-spacing:0;word-spacing:0;fill:#000;fill-opacity:1;stroke:none;font-family:Bitstream Vera Sans" x="-165.35957" y="-121.97439" transform="scale(-1)"><tspan x="-165.35957" y="-121.97439" style="font-size:38.40000153px;font-style:italic;font-variant:normal;font-weight:700;font-stretch:normal;font-family:URW Chancery L;-inkscape-font-specification:URW Chancery L Bold Italic">r</tspan></text></svg>