<svg xmlns="http://www.w3.org/2000/svg" xmlns:xlink="http://www.w3.org/1999/xlink" width="222.78255213" height="323.5559896" viewBox="0 0 167.0869141 242.6669922" xml:space="preserve"><defs><radialGradient xlink:href="#a" id="e" cx="-.15782039" cy="-8.8345356" fx="-.15782039" fy="-8.8345356" r="7.9997029" gradientTransform="matrix(-1.58427 -.0235 .03072 -2.47757 -.24856378 -26.713507)" gradientUnits="userSpaceOnUse"/><radialGradient r="7.9997029" fy="-8.8345356" fx="-.15782039" cy="-8.8345356" cx="-.15782039" gradientTransform="matrix(-1.58427 -.0235 .03072 -2.47757 -.24856378 -26.713507)" gradientUnits="userSpaceOnUse" id="f" xlink:href="#a"/><radialGradient xlink:href="#b" id="g" gradientUnits="userSpaceOnUse" gradientTransform="matrix(1.25656 -.7774 .33664 .53613 -221.20213 359.24256)" cx="168.02475" cy="509.47577" fx="168.02475" fy="509.47577" r="81.902771"/><radialGradient xlink:href="#c" id="h" gradientUnits="userSpaceOnUse" gradientTransform="matrix(1.25656 -.7774 .33664 .53613 -221.20213 359.24256)" cx="168.02475" cy="509.47577" fx="168.02475" fy="509.47577" r="81.902771"/><radialGradient xlink:href="#d" id="i" gradientUnits="userSpaceOnUse" gradientTransform="matrix(1.25656 -.7774 .33664 .53613 -221.20213 359.24256)" cx="168.02475" cy="509.47577" fx="168.02475" fy="509.47577" r="81.902771"/><linearGradient id="a"><stop style="stop-color:#000;stop-opacity:1" offset="0"/><stop style="stop-color:#000;stop-opacity:.64885497" offset="1"/></linearGradient><linearGradient id="b"><stop style="stop-color:#fff;stop-opacity:.4351145" offset="0"/><stop style="stop-color:#000;stop-opacity:0" offset="1"/></linearGradient><linearGradient id="c"><stop style="stop-color:#fff;stop-opacity:.48854962" offset="0"/><stop style="stop-color:#000;stop-opacity:0" offset="1"/></linearGradient><linearGradient id="d"><stop style="stop-color:#fff;stop-opacity:.23664123" offset="0"/><stop style="stop-color:#000;stop-opacity:0" offset="1"/></linearGradient></defs><g style="fill-rule:nonzero;clip-rule:nonzero;stroke:#000;stroke-miterlimit:4"><path style="fill:#fff;stroke-width:.5" d="M166.8369141 235.5478516c0 3.7773438-3.0869141 6.8691406-6.8710938 6.8691406H7.1108398C3.3359375 242.4169922.25 239.3251953.25 235.5478516V7.1201172C.25 3.3427734 3.3359375.25 7.1108398.25h152.8549805c3.7841797 0 6.8710938 3.0927734 6.8710938 6.8701172v228.4277344z"/></g><g style="fill:url(#e);fill-opacity:1" transform="matrix(6.30671 0 0 5.7663 83.91470292 120.03924374)"><path style="fill:url(#f);fill-opacity:1" d="M7.989 3.103C7.747-.954.242-8.59 0-10.5-.242-8.591-7.747-.955-7.989 3.103c-.169 2.868 1.695 4.057 3.39 4.057 1.8351685-.021581 3.3508701-2.8006944 3.873-3.341.242.716-1.603 6.682-2.179 6.682h5.811c-.576 0-2.421-5.966-2.179-6.682.4571472.4962961 1.7971276 3.2578295 3.874 3.341 1.694-.001 3.557-1.189 3.388-4.057z"/></g><path transform="matrix(.32621 -.21497 .26709 .31372 -145.52924033 12.4990375)" d="M122.35696 574.3828s-13.12321-65.06668 17.80149-92.97385c34.76052-31.36871 150.11131-71.19514 150.11131-71.19514s-81.65171 84.60419-110.11131 108.338c-27.21033 22.69199-57.80149 55.83099-57.80149 55.83099z" style="fill:url(#g);fill-opacity:1;stroke:none;filter:url(#filter3803)"/><path transform="matrix(.49445 -.02458 .22412 .57443 -137.3090359 -172.3038839)" d="M122.35696 574.3828s-13.12321-65.06668 17.80149-92.97385c34.76052-31.36871 150.11131-71.19514 150.11131-71.19514s-81.65171 84.60419-110.11131 108.338c-27.21033 22.69199-57.80149 55.83099-57.80149 55.83099z" style="fill:url(#h);fill-opacity:1;stroke:none;filter:url(#filter3803-1)"/><path transform="matrix(.38584 -.06125 .11388 .39596 -47.58881996 -97.45086025)" d="M122.35696 574.3828s-13.12321-65.06668 17.80149-92.97385c34.76052-31.36871 150.11131-71.19514 150.11131-71.19514s-81.65171 84.60419-110.11131 108.338c-27.21033 22.69199-57.80149 55.83099-57.80149 55.83099z" style="fill:url(#i);fill-opacity:1;stroke:none;filter:url(#filter3803-73)"/><path d="M19.993242 106.65013v854.28121H697.14954V106.65013H19.993242zM371.74324 221.86888c7.6845 55.45326 245.9718 277.15012 253.6563 394.93746 5.3664 83.267-53.7711 117.7523-107.5625 117.7813-65.9492-2.4147-108.515-82.591-123.0313-97-7.6845 20.7877 50.8972 194 69.1875 194h-184.5c18.2904 0 76.872-173.2123 69.1875-194-16.5797 15.6867-64.7259 96.3734-123 97-53.8231 0-112.9914-34.5143-107.625-117.7813 7.6845-117.81637 246.003-339.51323 253.6875-394.93746z" style="fill:#fffeff;fill-opacity:1;fill-rule:nonzero;stroke:none" transform="translate(10.083458 15.428884) scale(.19861)"/><text xml:space="preserve" style="font-size:32px;font-style:normal;font-weight:400;line-height:125%;letter-spacing:0;word-spacing:0;fill:#000;fill-opacity:1;stroke:none;font-family:Bitstream Vera Sans" x="-157.42149" y="-215.79399" transform="scale(-1)"><tspan x="-157.42149" y="-215.79399" style="font-style:normal;font-variant:normal;font-weight:400;font-stretch:normal;font-family:Arial;-inkscape-font-specification:Arial">J</tspan></text><g><path d="M7.989 3.103C7.747-.954.242-8.59 0-10.5-.242-8.591-7.747-.955-7.989 3.103c-.169 2.868 1.695 4.057 3.39 4.057 1.8351685-.021581 3.3508701-2.8006944 3.873-3.341.242.716-1.603 6.682-2.179 6.682h5.811c-.576 0-2.421-5.966-2.179-6.682.4571472.4962961 1.7971276 3.2578295 3.874 3.341 1.694-.001 3.557-1.189 3.388-4.057z" style="fill:#000" transform="matrix(-1.5086 0 0 -1.37933 150.22472 198.04381)"/></g><text xml:space="preserve" style="font-size:32px;font-style:normal;font-weight:400;line-height:125%;letter-spacing:0;word-spacing:0;fill:#000;fill-opacity:1;stroke:none;font-family:Bitstream Vera Sans" x="9.4998217" y="28.013288"><tspan x="9.4998217" y="28.013288" style="font-style:normal;font-variant:normal;font-weight:400;font-stretch:normal;font-family:Arial;-inkscape-font-specification:Arial">J</tspan></text><g><path d="M7.989 3.103C7.747-.954.242-8.59 0-10.5-.242-8.591-7.747-.955-7.989 3.103c-.169 2.868 1.695 4.057 3.39 4.057 1.8351685-.021581 3.3508701-2.8006944 3.873-3.341.242.716-1.603 6.682-2.179 6.682h5.811c-.576 0-2.421-5.966-2.179-6.682.4571472.4962961 1.7971276 3.2578295 3.874 3.341 1.694-.001 3.557-1.189 3.388-4.057z" style="fill:#000" transform="matrix(1.5086 0 0 1.37933 16.929041 45.066155)"/></g></svg>