<svg xmlns="http://www.w3.org/2000/svg" xmlns:xlink="http://www.w3.org/1999/xlink" width="222.78255213" height="323.5559896" viewBox="0 0 167.0869141 242.6669922" xml:space="preserve"><defs><linearGradient id="a"><stop style="stop-color:#000;stop-opacity:1" offset="0"/><stop style="stop-color:#000;stop-opacity:.64885497" offset="1"/></linearGradient><linearGradient id="b"><stop style="stop-color:#fff;stop-opacity:.4351145" offset="0"/><stop style="stop-color:#000;stop-opacity:0" offset="1"/></linearGradient><linearGradient id="c"><stop style="stop-color:#fff;stop-opacity:.48854962" offset="0"/><stop style="stop-color:#000;stop-opacity:0" offset="1"/></linearGradient><linearGradient id="d"><stop style="stop-color:#fff;stop-opacity:.23664123" offset="0"/><stop style="stop-color:#000;stop-opacity:0" offset="1"/></linearGradient><linearGradient id="e"><stop style="stop-color:#df0000;stop-opacity:1" offset="0"/><stop style="stop-color:#df0000;stop-opacity:.67175573" offset="1"/></linearGradient><linearGradient id="f"><stop style="stop-color:#fff;stop-opacity:.31297711" offset="0"/><stop style="stop-color:#000;stop-opacity:0" offset="1"/></linearGradient><linearGradient id="g"><stop style="stop-color:#fff;stop-opacity:.29007635" offset="0"/><stop style="stop-color:#000;stop-opacity:0" offset="1"/></linearGradient><radialGradient xlink:href="#e" id="h" cx="-.20602037" cy="-4.5786963" fx="-.20602037" fy="-4.5786963" r="8" gradientTransform="matrix(-1 0 0 -1.72018 -.41204074 -13.027194)" gradientUnits="userSpaceOnUse"/><radialGradient r="81.902771" fy="511.22299" fx="171.48665" cy="511.22299" cx="171.48665" gradientTransform="matrix(1.15299 -.67392 .39482 .67549 -233.63262 270.40076)" gradientUnits="userSpaceOnUse" id="i" xlink:href="#f"/><radialGradient r="81.902771" fy="492.63205" fx="159.35434" cy="492.63205" cx="159.35434" gradientTransform="matrix(1.08948 -.71514 .44645 .65627 -244.93331 290.9185)" gradientUnits="userSpaceOnUse" id="j" xlink:href="#g"/></defs><g style="fill-rule:nonzero;clip-rule:nonzero;stroke:#000;stroke-miterlimit:4"><path style="fill:#fff;stroke-width:.5" d="M166.8369141 235.5478516c0 3.7773438-3.0869141 6.8691406-6.8710938 6.8691406H7.1108398C3.3359375 242.4169922.25 239.3251953.25 235.5478516V7.1201172C.25 3.3427734 3.3359375.25 7.1108398.25h152.8549805c3.7841797 0 6.8710938 3.0927734 6.8710938 6.8701172v228.4277344z"/></g><text xml:space="preserve" style="font-size:32px;font-style:normal;font-weight:400;line-height:125%;letter-spacing:0;word-spacing:0;fill:#df0000;fill-opacity:1;stroke:none;font-family:Bitstream Vera Sans" x="9.4456663" y="28.013288"><tspan x="9.4456663" y="28.013288" style="font-style:normal;font-variant:normal;font-weight:400;font-stretch:normal;fill:#df0000;fill-opacity:1;font-family:Arial;-inkscape-font-specification:Arial">J</tspan></text><g style="stroke:none"><path d="M3.676-9C.433-9 0-5.523 0-5.523S-.433-9-3.676-9C-5.946-9-8-7.441-8-4.5-8-.614-1.4208493 3.2938141 0 9 1.35201 3.2985969 8-.614 8-4.5 8-7.441 5.946-9 3.676-9z" style="fill:url(#h);fill-opacity:1;stroke:none" transform="matrix(6.8256 0 0 6.38811 83.14175679 122.27334614)"/></g><path transform="matrix(.2922 0 0 .3026 -4.3353096 -71.83859734)" d="M117.3013 604.26609s-8.06755-94.94997 22.85715-122.85714c34.76052-31.36871 140-11.42857 140-11.42857s-71.5404 24.83762-100 48.57143c-27.21033 22.69199-62.85715 85.71428-62.85715 85.71428z" style="fill:url(#i);fill-opacity:1;stroke:none;filter:url(#filter3834-6)"/><path transform="matrix(.22705 .0665 -.06483 .27594 94.81357603 -72.09673104)" d="M117.3013 604.26609s-8.06755-94.94997 22.85715-122.85714c34.76052-31.36871 140-11.42857 140-11.42857s-63.09295 37.07057-91.55255 60.80438c-27.21033 22.69199-71.3046 73.48133-71.3046 73.48133z" style="fill:url(#j);fill-opacity:1;stroke:none;filter:url(#filter3834-6-3)"/><path style="fill:#df0000;fill-opacity:1" d="M3.676-9C.433-9 0-5.523 0-5.523S-.433-9-3.676-9C-5.946-9-8-7.441-8-4.5-8-.614-1.4208493 3.2938141 0 9 1.35201 3.2985969 8-.614 8-4.5 8-7.441 5.946-9 3.676-9z" transform="matrix(1.6743 0 0 1.567 17.177511 46.385321)"/><text xml:space="preserve" style="font-size:32px;font-style:normal;font-weight:400;line-height:125%;letter-spacing:0;word-spacing:0;fill:#df0000;fill-opacity:1;stroke:none;font-family:Bitstream Vera Sans" x="-157.88785" y="-213.51517" transform="scale(-1)"><tspan x="-157.88785" y="-213.51517" style="font-style:normal;font-variant:normal;font-weight:400;font-stretch:normal;fill:#df0000;fill-opacity:1;font-family:Arial;-inkscape-font-specification:Arial">J</tspan></text><g style="fill:#df0000;fill-opacity:1"><path style="fill:#df0000;fill-opacity:1" d="M3.676-9C.433-9 0-5.523 0-5.523S-.433-9-3.676-9C-5.946-9-8-7.441-8-4.5-8-.614-1.4208493 3.2938141 0 9 1.35201 3.2985969 8-.614 8-4.5 8-7.441 5.946-9 3.676-9z" transform="matrix(-1.6743 0 0 -1.567 150.15601 195.14313)"/></g></svg>